<?xml version="1.0" standalone="no"?>
<!DOCTYPE svg PUBLIC "-//W3C//DTD SVG 20010904//EN"
 "http://www.w3.org/TR/2001/REC-SVG-20010904/DTD/svg10.dtd">
<svg version="1.0" xmlns="http://www.w3.org/2000/svg"
 width="554.000000pt" height="554.000000pt" viewBox="0 0 554.000000 554.000000"
 preserveAspectRatio="xMidYMid meet">
<metadata>
Created by potrace 1.11, written by Peter Selinger 2001-2013
</metadata>
<g transform="translate(0.000000,554.000000) scale(0.100000,-0.100000)"
fill="#000000" stroke="none">
<path d="M2288 4975 c-2 -1 -30 -5 -63 -8 -267 -26 -486 -138 -555 -285 -62
-132 -82 -401 -42 -587 12 -55 21 -109 21 -120 0 -11 3 -123 7 -250 14 -392 6
-1796 -9 -1823 -3 -4 -8 -45 -11 -92 -4 -47 -11 -121 -16 -165 -5 -44 -12
-109 -15 -145 -19 -198 -35 -295 -86 -493 -18 -73 -19 -80 -3 -112 31 -66 139
-119 324 -160 108 -25 126 -28 270 -44 232 -27 407 -36 760 -36 246 0 533 10
550 20 3 1 34 6 68 9 291 30 553 122 598 208 20 39 15 104 -26 303 -21 98 -29
163 -25 189 6 39 39 96 55 96 16 0 271 150 380 223 136 91 229 166 310 247 73
74 95 112 112 197 18 94 14 464 -6 668 -2 17 -7 62 -10 100 -11 109 -15 147
-42 340 -71 503 -154 719 -304 789 -42 20 -60 21 -264 18 -236 -2 -283 4 -323
44 -29 29 -29 32 22 164 43 110 50 161 27 210 -28 61 -195 293 -245 342 -64
61 -177 117 -264 129 -37 5 -261 12 -498 14 -236 3 -489 7 -562 9 -72 2 -133
3 -135 1z m2114 -1197 c80 -52 119 -141 143 -318 3 -25 8 -54 9 -65 2 -11 7
-49 11 -85 3 -36 8 -78 10 -95 2 -16 7 -75 10 -130 4 -55 8 -111 11 -125 6
-42 19 -436 18 -577 -2 -156 -13 -189 -100 -276 -93 -93 -305 -222 -407 -248
-100 -25 -132 16 -152 196 -3 28 -7 68 -10 90 -4 38 -9 137 -21 385 -8 165
-13 1121 -7 1154 3 16 23 46 44 67 44 44 45 44 264 44 127 0 155 -3 177 -17z"/>
</g>
</svg>
